# xmcd
#
# Track frame offsets: 
#        150
#        20485
#        40255
#        59585
#        91007
#        109632
#        129587
#        160615
#        176680
#
# Disc length: 2582 seconds
#
# Revision: 3
# Processed by: cddbd v1.5.2PL0 Copyright (c) Steve Scherf et al.
# Submitted via: ExactAudioCopy v1.3
#
DISCID=6b0a1409
DTITLE=Albert Collins - Cold Snap (MFSL)
DYEAR=1986
DGENRE=Blues
TTITLE0=Cash Talkin' (The Workingman's Blues)
TTITLE1=Bending Like A Willow Tree
TTITLE2=A Good Fool Is Hard To Find
TTITLE3=Lights Are On But Nobody's Home
TTITLE4=I Ain't Drunk
TTITLE5=Hooked On You
TTITLE6=Too Many Dirty Dishes
TTITLE7=Snatchin' It Back
TTITLE8=Fake I.D.
EXTD=
EXTT0=
EXTT1=
EXTT2=
EXTT3=
EXTT4=
EXTT5=
EXTT6=
EXTT7=
EXTT8=
PLAYORDER=
